<svg width="45" height="45" viewBox="0 0 45 45" fill="none" xmlns="http://www.w3.org/2000/svg">
<g clip-path="url(#clip0_30_21)">
<path opacity="0.2" d="M38.7692 20.0769C38.7692 23.3631 37.7948 26.5755 35.969 29.3079C34.1433 32.0403 31.5483 34.1699 28.5123 35.4275C25.4762 36.6851 22.1354 37.0141 18.9123 36.373C15.6893 35.7319 12.7287 34.1495 10.405 31.8258C8.08129 29.502 6.49883 26.5415 5.85772 23.3184C5.21661 20.0953 5.54565 16.7545 6.80323 13.7185C8.06081 10.6824 10.1904 8.08744 12.9228 6.26171C15.6552 4.43599 18.8676 3.46152 22.1538 3.46152C26.5605 3.46152 30.7867 5.21206 33.9027 8.32805C37.0187 11.444 38.7692 15.6702 38.7692 20.0769Z" fill="#00E0E1"/>
<path d="M30.0565 14.9434C30.1853 15.072 30.2874 15.2247 30.3571 15.3928C30.4268 15.5609 30.4626 15.7411 30.4626 15.9231C30.4626 16.105 30.4268 16.2852 30.3571 16.4533C30.2874 16.6214 30.1853 16.7741 30.0565 16.9027L20.3642 26.595C20.2356 26.7237 20.0829 26.8258 19.9148 26.8955C19.7468 26.9652 19.5666 27.0011 19.3846 27.0011C19.2027 27.0011 19.0225 26.9652 18.8544 26.8955C18.6863 26.8258 18.5336 26.7237 18.405 26.595L14.2512 22.4411C13.9913 22.1813 13.8454 21.8289 13.8454 21.4615C13.8454 21.0941 13.9913 20.7417 14.2512 20.4819C14.511 20.2221 14.8633 20.0761 15.2308 20.0761C15.5982 20.0761 15.9506 20.2221 16.2104 20.4819L19.3846 23.6579L28.0973 14.9434C28.2259 14.8147 28.3786 14.7126 28.5467 14.6429C28.7148 14.5732 28.895 14.5374 29.0769 14.5374C29.2589 14.5374 29.4391 14.5732 29.6071 14.6429C29.7752 14.7126 29.9279 14.8147 30.0565 14.9434ZM40.1538 20.0769C40.1538 23.637 39.0982 27.1171 37.1203 30.0772C35.1424 33.0373 32.3312 35.3444 29.0421 36.7067C25.7531 38.0691 22.1339 38.4256 18.6422 37.731C15.1506 37.0365 11.9433 35.3222 9.42593 32.8048C6.90858 30.2875 5.19425 27.0802 4.49971 23.5885C3.80518 20.0969 4.16164 16.4777 5.52402 13.1886C6.88639 9.89953 9.1935 7.08832 12.1536 5.11045C15.1137 3.13259 18.5938 2.0769 22.1538 2.0769C26.9262 2.08194 31.5016 3.97999 34.8762 7.35455C38.2508 10.7291 40.1488 15.3046 40.1538 20.0769ZM37.3846 20.0769C37.3846 17.0645 36.4913 14.1198 34.8178 11.6151C33.1442 9.11046 30.7655 7.15829 27.9824 6.00551C25.1994 4.85273 22.137 4.55111 19.1825 5.13879C16.228 5.72647 13.5141 7.17706 11.3841 9.30712C9.25401 11.4372 7.80342 14.151 7.21573 17.1055C6.62805 20.06 6.92967 23.1224 8.08245 25.9055C9.23523 28.6885 11.1874 31.0672 13.6921 32.7408C16.1968 34.4144 19.1415 35.3077 22.1538 35.3077C26.1919 35.3031 30.0632 33.697 32.9186 30.8416C35.7739 27.9863 37.38 24.1149 37.3846 20.0769Z" fill="#00E0E1"/>
</g>
<defs>
<clipPath id="clip0_30_21">
<rect width="45" height="44.3077" fill="white"/>
</clipPath>
</defs>
</svg>
