<svg width="45" height="45" viewBox="0 0 45 45" fill="none" xmlns="http://www.w3.org/2000/svg">
<path opacity="0.2" d="M37.9688 16.6154V36C37.9688 36.3672 37.8206 36.7194 37.5569 36.9791C37.2931 37.2387 36.9355 37.3846 36.5625 37.3846H8.4375C8.06454 37.3846 7.70685 37.2387 7.44313 36.9791C7.17941 36.7194 7.03125 36.3672 7.03125 36V16.6154C7.03125 16.2482 7.17941 15.896 7.44313 15.6363C7.70685 15.3767 8.06454 15.2308 8.4375 15.2308H36.5625C36.9355 15.2308 37.2931 15.3767 37.5569 15.6363C37.8206 15.896 37.9688 16.2482 37.9688 16.6154Z" fill="#00E0E1"/>
<path d="M36.5625 13.8462H30.9375V9.69231C30.9375 7.48897 30.0486 5.37587 28.4662 3.81788C26.8839 2.25989 24.7378 1.38461 22.5 1.38461C20.2622 1.38461 18.1161 2.25989 16.5338 3.81788C14.9514 5.37587 14.0625 7.48897 14.0625 9.69231V13.8462H8.4375C7.69158 13.8462 6.97621 14.1379 6.44876 14.6572C5.92132 15.1766 5.625 15.8809 5.625 16.6154V36C5.625 36.7344 5.92132 37.4388 6.44876 37.9581C6.97621 38.4775 7.69158 38.7692 8.4375 38.7692H36.5625C37.3084 38.7692 38.0238 38.4775 38.5512 37.9581C39.0787 37.4388 39.375 36.7344 39.375 36V16.6154C39.375 15.8809 39.0787 15.1766 38.5512 14.6572C38.0238 14.1379 37.3084 13.8462 36.5625 13.8462ZM16.875 9.69231C16.875 8.22341 17.4676 6.81468 18.5225 5.77602C19.5774 4.73736 21.0082 4.15384 22.5 4.15384C23.9918 4.15384 25.4226 4.73736 26.4775 5.77602C27.5324 6.81468 28.125 8.22341 28.125 9.69231V13.8462H16.875V9.69231ZM36.5625 36H8.4375V16.6154H36.5625V36ZM24.6094 26.3077C24.6094 26.7185 24.4857 27.12 24.2539 27.4616C24.0221 27.8031 23.6927 28.0693 23.3072 28.2265C22.9218 28.3837 22.4977 28.4248 22.0885 28.3447C21.6793 28.2646 21.3034 28.0668 21.0084 27.7763C20.7134 27.4858 20.5125 27.1158 20.4312 26.7129C20.3498 26.31 20.3915 25.8924 20.5512 25.5129C20.7108 25.1334 20.9812 24.809 21.3281 24.5808C21.675 24.3526 22.0828 24.2308 22.5 24.2308C23.0594 24.2308 23.596 24.4496 23.9916 24.8391C24.3871 25.2286 24.6094 25.7569 24.6094 26.3077Z" fill="#00E0E1"/>
</svg>
