<svg width="44" height="44" viewBox="0 0 44 44" fill="none" xmlns="http://www.w3.org/2000/svg">
<path opacity="0.2" d="M33 9.625V34.375H11V9.625H33Z" fill="#00E0E1"/>
<path d="M30.25 2.75H13.75C12.656 2.75 11.6068 3.1846 10.8332 3.95818C10.0596 4.73177 9.625 5.78098 9.625 6.875V37.125C9.625 38.219 10.0596 39.2682 10.8332 40.0418C11.6068 40.8154 12.656 41.25 13.75 41.25H30.25C31.344 41.25 32.3932 40.8154 33.1668 40.0418C33.9404 39.2682 34.375 38.219 34.375 37.125V6.875C34.375 5.78098 33.9404 4.73177 33.1668 3.95818C32.3932 3.1846 31.344 2.75 30.25 2.75ZM12.375 11H31.625V33H12.375V11ZM13.75 5.5H30.25C30.6147 5.5 30.9644 5.64487 31.2223 5.90273C31.4801 6.16059 31.625 6.51033 31.625 6.875V8.25H12.375V6.875C12.375 6.51033 12.5199 6.16059 12.7777 5.90273C13.0356 5.64487 13.3853 5.5 13.75 5.5ZM30.25 38.5H13.75C13.3853 38.5 13.0356 38.3551 12.7777 38.0973C12.5199 37.8394 12.375 37.4897 12.375 37.125V35.75H31.625V37.125C31.625 37.4897 31.4801 37.8394 31.2223 38.0973C30.9644 38.3551 30.6147 38.5 30.25 38.5Z" fill="#00E0E1"/>
</svg>
