<svg width="44" height="44" viewBox="0 0 44 44" fill="none" xmlns="http://www.w3.org/2000/svg">
<path opacity="0.2" d="M40.8478 26.2969L26.2969 40.8478C26.039 41.1055 25.6894 41.2502 25.3249 41.2502C24.9604 41.2502 24.6108 41.1055 24.353 40.8478L7.27719 23.7772C7.01981 23.5195 6.87517 23.1703 6.875 22.8061V6.875H22.8061C23.1703 6.87517 23.5195 7.01981 23.7772 7.27719L40.8478 24.3478C40.9762 24.4756 41.078 24.6274 41.1475 24.7947C41.217 24.9619 41.2528 25.1412 41.2528 25.3223C41.2528 25.5034 41.217 25.6828 41.1475 25.85C41.078 26.0172 40.9762 26.1691 40.8478 26.2969Z" fill="#00E0E1"/>
<path d="M41.8189 23.375L24.75 6.30611C24.4956 6.04963 24.1927 5.8463 23.859 5.70791C23.5253 5.56953 23.1674 5.49886 22.8061 5.50001H6.87501C6.51034 5.50001 6.1606 5.64488 5.90274 5.90274C5.64488 6.1606 5.50001 6.51034 5.50001 6.87501V22.8061C5.49886 23.1674 5.56953 23.5253 5.70791 23.859C5.8463 24.1927 6.04963 24.4956 6.30611 24.75L23.375 41.8189C23.6304 42.0743 23.9336 42.277 24.2673 42.4152C24.6009 42.5534 24.9586 42.6246 25.3198 42.6246C25.681 42.6246 26.0386 42.5534 26.3723 42.4152C26.706 42.277 27.0092 42.0743 27.2645 41.8189L41.8189 27.2645C42.0743 27.0092 42.277 26.706 42.4152 26.3723C42.5534 26.0386 42.6246 25.681 42.6246 25.3198C42.6246 24.9586 42.5534 24.6009 42.4152 24.2673C42.277 23.9336 42.0743 23.6304 41.8189 23.375ZM25.3189 39.875L8.25001 22.8061V8.25001H22.8061L39.875 25.3189L25.3189 39.875ZM16.5 14.4375C16.5 14.8454 16.3791 15.2442 16.1524 15.5834C15.9258 15.9226 15.6037 16.1869 15.2268 16.343C14.8499 16.4991 14.4352 16.54 14.0351 16.4604C13.6351 16.3808 13.2676 16.1844 12.9791 15.8959C12.6907 15.6075 12.4942 15.24 12.4146 14.8399C12.3351 14.4398 12.3759 14.0251 12.532 13.6482C12.6881 13.2714 12.9525 12.9492 13.2917 12.7226C13.6308 12.496 14.0296 12.375 14.4375 12.375C14.9845 12.375 15.5091 12.5923 15.8959 12.9791C16.2827 13.3659 16.5 13.8905 16.5 14.4375Z" fill="#00E0E1"/>
</svg>
